{
  "accessors": [
    {
      "bufferView": 2,
      "componentType": 5126,
      "count": 65532,
      "max": [
        1.8040629625320435,
        0.624862015247345,
        -0.4115859866142273
      ],
      "min": [
        -1.802325963973999,
        -0.41662099957466125,
        -0.6198909878730774
      ],
      "type": "VEC3"
    },
    {
      "bufferView": 2,
      "byteOffset": 786384,
      "componentType": 5126,
      "count": 65532,
      "max": [
        0.9999469518661499,
        1.0,
        -0.0
      ],
      "min": [
        -0.9999469518661499,
        -0.692227840423584,
        -1.0
      ],
      "type": "VEC3"
    },
    {
      "bufferView": 1,
      "componentType": 5126,
      "count": 65532,
      "max": [
        0.7323870062828064,
        0.4212000072002411
      ],
      "min": [
        0.375,
        0.0
      ],
      "type": "VEC2"
    },
    {
      "bufferView": 0,
      "componentType": 5125,
      "count": 162909,
      "type": "SCALAR"
    },
    {
      "bufferView": 2,
      "byteOffset": 1572768,
      "componentType": 5126,
      "count": 65533,
      "max": [
        1.67317795753479,
        0.6248199939727783,
        0.5777379870414734
      ],
      "min": [
        -1.647779941558838,
        -0.6248660087585449,
        -0.6198909878730774
      ],
      "type": "VEC3"
    },
    {
      "bufferView": 2,
      "byteOffset": 2359164,
      "componentType": 5126,
      "count": 65533,
      "max": [
        0.7497652769088745,
        1.0,
        0.9999459981918335
      ],
      "min": [
        -0.6998704075813293,
        -1.0,
        -1.0
      ],
      "type": "VEC3"
    },
    {
      "bufferView": 1,
      "byteOffset": 524256,
      "componentType": 5126,
      "count": 65533,
      "max": [
        0.8973000049591064,
        0.5243840217590332
      ],
      "min": [
        0.7083209753036499,
        0.195701003074646
      ],
      "type": "VEC2"
    },
    {
      "bufferView": 0,
      "byteOffset": 651636,
      "componentType": 5125,
      "count": 120735,
      "type": "SCALAR"
    },
    {
      "bufferView": 2,
      "byteOffset": 3145560,
      "componentType": 5126,
      "count": 65532,
      "max": [
        1.6052089929580688,
        0.6248610019683838,
        0.5777329802513123
      ],
      "min": [
        -1.802325963973999,
        -0.6248660087585449,
        -0.6198800206184387
      ],
      "type": "VEC3"
    },
    {
      "bufferView": 2,
      "byteOffset": 3931944,
      "componentType": 5126,
      "count": 65532,
      "max": [
        0.6777734756469727,
        0.9999998807907104,
        0.999945878982544
      ],
      "min": [
        -0.9999469518661499,
        -1.0,
        -1.0
      ],
      "type": "VEC3"
    },
    {
      "bufferView": 1,
      "byteOffset": 1048520,
      "componentType": 5126,
      "count": 65532,
      "max": [
        0.9332489967346191,
        0.9202510118484497
      ],
      "min": [
        0.05772000178694725,
        0.2693130075931549
      ],
      "type": "VEC2"
    },
    {
      "bufferView": 0,
      "byteOffset": 1134576,
      "componentType": 5125,
      "count": 111036,
      "type": "SCALAR"
    },
    {
      "bufferView": 2,
      "byteOffset": 4718328,
      "componentType": 5126,
      "count": 65532,
      "max": [
        1.8040629625320435,
        0.624862015247345,
        0.5722450017929077
      ],
      "min": [
        -1.7128440141677856,
        -0.6248660087585449,
        -0.41161200404167175
      ],
      "type": "VEC3"
    },
    {
      "bufferView": 2,
      "byteOffset": 5504712,
      "componentType": 5126,
      "count": 65532,
      "max": [
        0.9999469518661499,
        1.0,
        0.9906952977180481
      ],
      "min": [
        -0.8459339737892151,
        -1.0,
        9.999364556279033e-05
      ],
      "type": "VEC3"
    },
    {
      "bufferView": 1,
      "byteOffset": 1572776,
      "componentType": 5126,
      "count": 65532,
      "max": [
        0.8967289924621582,
        0.9100689888000488
      ],
      "min": [
        0.07308299839496613,
        0.19627200067043304
      ],
      "type": "VEC2"
    },
    {
      "bufferView": 0,
      "byteOffset": 1578720,
      "componentType": 5125,
      "count": 112032,
      "type": "SCALAR"
    },
    {
      "bufferView": 2,
      "byteOffset": 6291096,
      "componentType": 5126,
      "count": 20466,
      "max": [
        0.6190900206565857,
        0.6248199939727783,
        0.421519011259079
      ],
      "min": [
        -1.647779941558838,
        0.3123779892921448,
        -0.6198909878730774
      ],
      "type": "VEC3"
    },
    {
      "bufferView": 2,
      "byteOffset": 6536688,
      "componentType": 5126,
      "count": 20466,
      "max": [
        0.0,
        1.0,
        0.6960724592208862
      ],
      "min": [
        -0.6998704075813293,
        -0.0,
        -1.0
      ],
      "type": "VEC3"
    },
    {
      "bufferView": 1,
      "byteOffset": 2097032,
      "componentType": 5126,
      "count": 20466,
      "max": [
        0.8236879706382751,
        0.26874199509620667
      ],
      "min": [
        0.7141270041465759,
        0.195701003074646
      ],
      "type": "VEC2"
    },
    {
      "bufferView": 0,
      "byteOffset": 2026848,
      "componentType": 5125,
      "count": 33960,
      "type": "SCALAR"
    }
  ],
  "asset": {
    "extras": {
      "author": "crazyKiwi1 (https://sketchfab.com/crazyKiwi1)",
      "license": "CC-BY-4.0 (http://creativecommons.org/licenses/by/4.0/)",
      "source": "https://sketchfab.com/3d-models/cursed-bread-doge-bread-a7a6c45607ca4c0e91b1f32c196cd544",
      "title": "Cursed Bread/ doge bread"
    },
    "generator": "Sketchfab-10.59.0",
    "version": "2.0"
  },
  "bufferViews": [
    {
      "buffer": 0,
      "byteLength": 2162688,
      "name": "floatBufferViews",
      "target": 34963
    },
    {
      "buffer": 0,
      "byteLength": 2260760,
      "byteOffset": 2162688,
      "byteStride": 8,
      "name": "floatBufferViews",
      "target": 34962
    },
    {
      "buffer": 0,
      "byteLength": 6782280,
      "byteOffset": 4423448,
      "byteStride": 12,
      "name": "floatBufferViews",
      "target": 34962
    }
  ],
  "buffers": [
    {
      "byteLength": 11205728,
      "uri": "scene.bin"
    }
  ],
  "images": [
    {
      "uri": "textures/Material.001_baseColor.jpeg"
    }
  ],
  "materials": [
    {
      "doubleSided": true,
      "name": "Material.001",
      "pbrMetallicRoughness": {
        "baseColorTexture": {
          "index": 0
        },
        "metallicFactor": 0.0,
        "roughnessFactor": 0.6
      }
    }
  ],
  "meshes": [
    {
      "name": "Object_0",
      "primitives": [
        {
          "attributes": {
            "NORMAL": 1,
            "POSITION": 0,
            "TEXCOORD_0": 2
          },
          "indices": 3,
          "material": 0,
          "mode": 4
        }
      ]
    },
    {
      "name": "Object_1",
      "primitives": [
        {
          "attributes": {
            "NORMAL": 5,
            "POSITION": 4,
            "TEXCOORD_0": 6
          },
          "indices": 7,
          "material": 0,
          "mode": 4
        }
      ]
    },
    {
      "name": "Object_2",
      "primitives": [
        {
          "attributes": {
            "NORMAL": 9,
            "POSITION": 8,
            "TEXCOORD_0": 10
          },
          "indices": 11,
          "material": 0,
          "mode": 4
        }
      ]
    },
    {
      "name": "Object_3",
      "primitives": [
        {
          "attributes": {
            "NORMAL": 13,
            "POSITION": 12,
            "TEXCOORD_0": 14
          },
          "indices": 15,
          "material": 0,
          "mode": 4
        }
      ]
    },
    {
      "name": "Object_4",
      "primitives": [
        {
          "attributes": {
            "NORMAL": 17,
            "POSITION": 16,
            "TEXCOORD_0": 18
          },
          "indices": 19,
          "material": 0,
          "mode": 4
        }
      ]
    }
  ],
  "nodes": [
    {
      "children": [
        1
      ],
      "matrix": [
        1.0,
        0.0,
        0.0,
        0.0,
        0.0,
        2.220446049250313e-16,
        -1.0,
        0.0,
        0.0,
        1.0,
        2.220446049250313e-16,
        0.0,
        0.0,
        0.0,
        0.0,
        1.0
      ],
      "name": "Sketchfab_model"
    },
    {
      "children": [
        2,
        3,
        4,
        5,
        6
      ],
      "name": "cursed bread.obj.cleaner.materialmerger.gles"
    },
    {
      "mesh": 0,
      "name": "Object_2"
    },
    {
      "mesh": 1,
      "name": "Object_3"
    },
    {
      "mesh": 2,
      "name": "Object_4"
    },
    {
      "mesh": 3,
      "name": "Object_5"
    },
    {
      "mesh": 4,
      "name": "Object_6"
    }
  ],
  "samplers": [
    {
      "magFilter": 9729,
      "minFilter": 9987,
      "wrapS": 10497,
      "wrapT": 10497
    }
  ],
  "scene": 0,
  "scenes": [
    {
      "name": "Sketchfab_Scene",
      "nodes": [
        0
      ]
    }
  ],
  "textures": [
    {
      "sampler": 0,
      "source": 0
    }
  ]
}
